<?xml version="1.0" encoding="UTF-8" standalone="no"?>
<!-- Generator: Adobe Illustrator 13.0.2, SVG Export Plug-In . SVG Version: 6.00 Build 14948)  -->
<svg
   xmlns:dc="http://purl.org/dc/elements/1.1/"
   xmlns:cc="http://creativecommons.org/ns#"
   xmlns:rdf="http://www.w3.org/1999/02/22-rdf-syntax-ns#"
   xmlns:svg="http://www.w3.org/2000/svg"
   xmlns="http://www.w3.org/2000/svg"
   xmlns:sodipodi="http://sodipodi.sourceforge.net/DTD/sodipodi-0.dtd"
   xmlns:inkscape="http://www.inkscape.org/namespaces/inkscape"
   version="1.1"
   baseProfile="basic"
   id="svg2"
   inkscape:output_extension="org.inkscape.output.svg.inkscape"
   inkscape:version="0.46"
   sodipodi:version="0.32"
   sodipodi:docname="WikiVoc-glasses.svg"
   x="0px"
   y="0px"
   width="300px"
   height="300px"
   viewBox="0 0 300 300"
   xml:space="preserve"><metadata
     id="metadata152"><rdf:RDF><cc:Work
         rdf:about=""><dc:format>image/svg+xml</dc:format><dc:type
           rdf:resource="http://purl.org/dc/dcmitype/StillImage" /></cc:Work></rdf:RDF></metadata><defs
     id="defs150"><inkscape:perspective
       sodipodi:type="inkscape:persp3d"
       inkscape:vp_x="0 : 150 : 1"
       inkscape:vp_y="0 : 1000 : 0"
       inkscape:vp_z="300 : 150 : 1"
       inkscape:persp3d-origin="150 : 100 : 1"
       id="perspective154" /></defs><sodipodi:namedview
     id="base"
     pagecolor="#ffffff"
     inkscape:cx="348.71875"
     gridtolerance="10000"
     inkscape:zoom="0.91833333"
     borderopacity="1.0"
     guidetolerance="10"
     objecttolerance="10"
     bordercolor="#666666"
     inkscape:cy="51.398972"
     showgrid="false"
     inkscape:window-width="1280"
     inkscape:document-units="px"
     inkscape:current-layer="svg2"
     inkscape:window-y="174"
     inkscape:window-x="132"
     inkscape:window-height="743"
     inkscape:pageopacity="0.0"
     inkscape:pageshadow="2">
	</sodipodi:namedview><text
     transform="translate(42.2578,274.1719)"
     font-size="58.4621"
     id="word"
     style="font-size:58.46210098px;font-style:italic;font-variant:normal;font-weight:bold;font-stretch:normal;text-align:start;line-height:100%;text-anchor:start;fill:#0978ab;fill-opacity:1;stroke:none;stroke-width:1px;stroke-linecap:butt;stroke-linejoin:miter;stroke-opacity:1;display:inline;font-family:DejaVu Serif Condensed"
     sodipodi:linespacing="100%">glasses</text>
<g
     id="g6">
	<path
   fill-rule="evenodd"
   clip-rule="evenodd"
   fill="#B38383"
   d="M56.576,94.078l8.652,2.33l65.559,12.313l59.734,12.813   c0,0,29.618,6.488,31.782,9.15c2.162,2.664,7.653,6.49,7.819,8.154c0.167,1.664,5.824,17.305,5.824,17.305   s8.653,25.125,7.487,35.275l4.493,0.832l2.329-2.996l-1.497-1.164l-1.997-1.33c0,0-7.321-30.617-10.482-35.275l-7.654-17.473   c0,0-3.494-5.99-13.478-7.986l-1.664-1.664c0,0-28.786-6.988-29.285-6.988c-0.5,0-61.898-12.48-61.898-12.48l-65.06-13.478   L56.576,94.078z"
   id="path8" />
	<path
   fill-rule="evenodd"
   clip-rule="evenodd"
   fill="#754040"
   d="M50.419,87.755l8.485,0.499l163.565,33.113   c0,0,13.811,11.98,13.811,14.143s13.645,36.607,13.811,47.256s-1.331,5.324-1.331,5.324l-1.997-1.33   c0,0-9.318-35.941-10.482-35.275c-1.165,0.666-6.989-19.303-10.482-21.299c-3.494-1.996-9.152-4.66-9.152-4.66l-11.646-3.494   c0,0-21.3-4.658-22.464-4.326c-1.164,0.334-60.234-12.812-60.234-12.812L55.078,91.249c0,0-4.493-0.499-4.992-1.165   C49.587,89.418,50.419,87.755,50.419,87.755z"
   id="path10" />
	<path
   fill-rule="evenodd"
   clip-rule="evenodd"
   fill="#B38383"
   d="M253.752,91.582l-176.71,34.609l-4.659,4.492l-2.829,5.492   c0,0-10.482,28.619-9.651,34.609c0.833,5.99-3.494,12.146-3.494,17.305s-3.328,0.332-3.328,0.332l0.999-6.988l1.331-5.49   l5.99-22.463l8.985-24.627l5.491-4.16l1.664-1.164l41.931-8.319l30.783-5.824l8.818-2.496l55.409-10.15l31.116-6.156l7.653-1.664   L253.752,91.582z"
   id="path12" />
	<path
   fill-rule="evenodd"
   clip-rule="evenodd"
   fill="#754040"
   d="M272.638,83.346l-13.552-4.559   c-35.689-15.972-57.403-7.237-63.144-7.985c-5.74-0.749-27.953,15.223-27.953,15.223s-6.987-1.996-7.486-3.992   c-0.499-1.997-21.713-0.5-21.713-0.5l-6.739,5.99c0,0-2.845-1.016-13.477-9.983c-10.634-8.967-34.443-8.485-35.69-8.735   c-1.248-0.25-23.959,2.246-27.204,4.492c-3.245,2.247-13.477,4.493-16.223,6.489c-2.745,1.997-11.481,1.747-11.481,1.747   l-2.496,5.491l1.497,5.99l10.233,5.491c0,0,2.143,11.131,6.489,27.703c4.347,16.572,24.458,25.707,41.929,27.703   c17.47,1.996,35.19-13.977,37.686-17.221s9.733-19.967,9.733-19.967l6.489-13.476c0,0-2.246-5.741-0.499-10.233   s12.479-2.246,15.724-3.245c3.244-0.999,5.49,4.242,6.987,4.492c1.498,0.25-0.097,9.884-0.097,9.884l14.572,32.045l15.475,13.477   c27.952,6.74,31.696,8.236,51.163-6.986c19.467-15.225,17.471-34.193,17.72-37.188c0.25-2.995,2.746-6.239,4.742-8.734   c1.997-2.497,8.644-3.096,8.644-3.096L272.638,83.346z M118.324,132.695c-7.986,6.24-11.73,16.223-33.693,16.223   c-21.962,0-37.687-20.715-39.434-40.431C43.451,88.77,49.94,79.536,49.94,79.536s16.721-6.738,34.691-6.239   c17.97,0.5,35.44,9.983,40.432,16.972S126.311,126.457,118.324,132.695z M251.349,123.961   c-8.485,19.965-27.703,26.455-36.188,25.457s-21.93-2.777-38.531-21.146c-3.896-4.311-6.144-26.023-6.144-26.023l6.739-14.975   l13.228-9.734c0,0,21.464-5.241,31.696-2.995c10.232,2.246,25.706,3.494,28.452,10.232   C253.345,91.516,259.834,103.994,251.349,123.961z"
   id="path14" />
	<path
   fill-rule="evenodd"
   clip-rule="evenodd"
   fill="#754040"
   d="M252.098,88.521L75.461,123.779c0,0-8.051,9.166-8.8,11.162   c-0.749,1.998-13.977,51.664-13.977,51.664l1.146,4.896l-0.896,1.842c0,0-4.722-2.65-4.991-3.994   c-0.27-1.344,0.749-9.484,0.749-9.484s14.475-48.168,16.721-50.664c2.247-2.496,8.736-9.234,13.478-9.982   c4.742-0.748,171.959-32.695,171.959-32.695L252.098,88.521z"
   id="path16" />
	<path
   fill-rule="evenodd"
   clip-rule="evenodd"
   fill="#C4C4C4"
   d="M127.059,114.976c0,0-3.692,8.122-4.841,9.303   c-1.148,1.178-1.647-1.316-1.647-1.316s1.747-5.74,1.997-6.988c0.249-1.249,2.994-3.495,2.994-3.495L127.059,114.976z"
   id="path18" />
	<polygon
   fill-rule="evenodd"
   clip-rule="evenodd"
   fill="#C4C4C4"
   points="170.485,109.236 172.801,119.951 177.225,127.205    177.959,125.609 178.125,119.453 175.727,113.478 172.732,107.239  "
   id="polygon20" />
	<g
   id="g22">
		<path
   fill-rule="evenodd"
   clip-rule="evenodd"
   d="M124.714,87.339c-1.729-0.417-2.248-1.982-3.495-2.996    c-2.289-1.859-5.158-2.786-7.653-4.326c-0.632-0.39-0.992-1.012-1.664-1.332c-1.483-0.705-3.212-0.691-4.492-1.83    c0-0.167,0-0.333,0-0.499c6.939,0.993,11.906,5.397,16.806,8.985C124.309,86.08,124.753,86.467,124.714,87.339z"
   id="path24" />
		<path
   fill-rule="evenodd"
   clip-rule="evenodd"
   d="M88.44,79.019c-0.729,2.501-3.302,3.968-5.159,5.823    c-1.899,1.9-3.936,3.731-5.657,5.658c-0.348,0.096-0.476,0.413-0.999,0.333c-0.3,1.021,0.847,0.595,0.665,1.498    c-0.375,0.664-1.814,0.685-1.997-0.166c0.614-1.55,1.887-2.44,2.331-4.16c2.376-1.89,4.511-4.37,6.988-6.656    C85.815,80.239,86.393,79.01,88.44,79.019z"
   id="path26" />
		<path
   fill-rule="evenodd"
   clip-rule="evenodd"
   d="M91.435,81.016c0.058,0.889-0.656,1.007-1.164,1.331    c-3.065,3.536-6.781,6.419-9.984,9.817c0.49,0.286,1.351,0.202,1.664,0.665c0.01,1.305-1.7,1.025-2.496,0.666    c0.114-1.3,0.616-1.249,0.167-2.496c3.053-3.991,7.405-6.684,10.65-10.483C90.903,80.438,91.309,80.587,91.435,81.016z"
   id="path28" />
		<path
   fill-rule="evenodd"
   clip-rule="evenodd"
   d="M99.754,83.013c-1.507,2.319-3.499,4.154-5.989,5.49    c-0.279-1.748,2.48-4.378,3.993-5.49C98.151,82.723,99.091,82.42,99.754,83.013z"
   id="path30" />
		<path
   fill-rule="evenodd"
   clip-rule="evenodd"
   d="M258.66,83.179c-0.354,1.159-1.271,3.154-1.663,4.826    c0.002,1.993,1.645,2.347,2.328,3.66c-0.791,0.445-1.575-0.37-2.328-0.499c-0.299-1.29-1.14-2.361-1.165-3.661    c-0.03-1.473,1.425-2.694,0.998-4.16C257.162,82.955,258.264,82.533,258.66,83.179z"
   id="path32" />
		<path
   fill-rule="evenodd"
   clip-rule="evenodd"
   d="M268.145,83.678c1.386,0.445,2.442,1.218,3.328,2.163    c-0.207,1.568-1.264,2.286-2.164,3.163c-1.435,0.425-2.274-0.796-3.327-0.999c-2.116-0.409-3.279,1.034-4.825,2.163    c-1.459-0.593-1.969-2.135-3.162-2.995c0.867-1.197,1.867-3.109,3.495-2.995c0.13,1.128-0.864,1.134-1.165,1.831    c0.326,0.672,1.01,0.987,1.498,1.498c0.85-0.26,1.587-0.632,2.162-1.165c0.766,0.626,1.082,0.062,1.997,0    c1.688-0.113,3.104,2.03,3.993-0.166C269.508,85.199,268.211,85.054,268.145,83.678z"
   id="path34" />
		<path
   fill-rule="evenodd"
   clip-rule="evenodd"
   d="M42.848,83.845c0.111,0,0.222,0,0.333,0c1.945,1.696,0.003,6.749-1.997,7.155    C42.188,89.069,44.167,86.574,42.848,83.845z"
   id="path36" />
		<path
   fill-rule="evenodd"
   clip-rule="evenodd"
   d="M262.487,83.845c1.111,0.649,2.974,1.021,4.159,0.665    C266.113,86.319,262.615,85.674,262.487,83.845z"
   id="path38" />
		<path
   fill-rule="evenodd"
   clip-rule="evenodd"
   d="M33.53,86.34c-0.776,0.28-2.219-0.072-2.662-0.666    c-0.686,0.091-1.006,0.548-1.332,0.999c1.472,2.123,3.72,1.252,4.825-0.665c1.912,0.302,2.746-0.473,3.662-1.166    c1.685,0.423,2.491,1.724,2.995,3.329c-1.142,1.354-2.612,2.38-4.326,3.161c-0.778-0.941-1.323-2.116-2.663-2.496    c-0.994,0.115-1.292,0.927-1.996,1.331c-1.337-0.383-3.015-0.424-3.495-1.664c0.274-0.841,0.553-1.659,0.333-2.163    C29.629,83.835,32.67,83.896,33.53,86.34z M35.193,87.006c0.564,0.768,0.948,1.714,1.665,2.33    c1.178-0.486,2.227-1.102,2.829-2.164C38.636,85.192,37.068,86.77,35.193,87.006z"
   id="path40" />
		<path
   fill-rule="evenodd"
   clip-rule="evenodd"
   d="M90.604,86.507c-1.58,2.304-3.389,4.376-6.157,5.491    C85.31,88.979,88.041,87.827,90.604,86.507z"
   id="path42" />
		<path
   fill-rule="evenodd"
   clip-rule="evenodd"
   d="M98.756,88.171c-0.338,1.409-1.728,2.138-2.662,2.995    c-0.97,0.89-1.942,1.899-3.162,2.496c-0.664-2.867,3.408-3.774,4.826-5.657C98.168,87.982,98.56,87.979,98.756,88.171z"
   id="path44" />
		<path
   fill-rule="evenodd"
   clip-rule="evenodd"
   d="M135.362,91.998c-0.634,2.479-1.911,4.767-0.998,7.155    c0.313,0.82,1.576,1.337,0.666,2.33C131.888,100.095,132.504,93.187,135.362,91.998z"
   id="path46" />
		<path
   fill-rule="evenodd"
   clip-rule="evenodd"
   d="M41.018,92.663c0.166,0,0.333,0,0.499,0c-0.394,3.253,0.677,6.714,0,9.152    c-1.084-0.295-0.614-2.022-0.832-2.995C40.344,97.299,40.075,94.527,41.018,92.663z"
   id="path48" />
		<path
   fill-rule="evenodd"
   clip-rule="evenodd"
   d="M89.438,94.161c0.232,1.115-1.056,1.426-1.831,0.999    C87.613,94.207,88.563,93.74,89.438,94.161z"
   id="path50" />
		<path
   fill-rule="evenodd"
   clip-rule="evenodd"
   d="M74.462,94.994c-0.161,1.1-1.303,0.729-2.163,0.499    C72.267,94.48,74.069,94.128,74.462,94.994z"
   id="path52" />
		<path
   fill-rule="evenodd"
   clip-rule="evenodd"
   d="M94.264,95.326c0.016,1.626-2.363,0.879-3.161,0.499    C91.221,94.155,93.335,94.787,94.264,95.326z"
   id="path54" />
		<path
   fill-rule="evenodd"
   clip-rule="evenodd"
   d="M78.789,95.825c-0.043,1.127-1.908,0.592-2.496,0.333    C76.407,95.196,78.35,95.049,78.789,95.825z"
   id="path56" />
		<path
   fill-rule="evenodd"
   clip-rule="evenodd"
   d="M98.756,96.158c0.138,1.482-2.436,1.107-2.995,0.499    C95.853,95.319,97.997,95.54,98.756,96.158z"
   id="path58" />
		<path
   fill-rule="evenodd"
   clip-rule="evenodd"
   d="M260.657,95.659c0.193-0.027,0.296,0.037,0.333,0.166    c0.044,1.487-0.522,2.362-1.665,2.662C259.33,97.105,260.071,96.459,260.657,95.659z"
   id="path60" />
		<path
   fill-rule="evenodd"
   clip-rule="evenodd"
   d="M72.799,96.49c-0.169,1.554-1.35,1.792-2.995,1.498    c-1.495,1.223-3.074,2.361-3.993,4.159c-1.632,1.019-2.833,2.5-4.16,3.828c-1.25,1.249-2.573,2.798-4.494,3.327    c-0.049-2.039,2.246-3.682,3.828-5.158c2.009-1.875,3.794-3.861,6.489-4.825C69.271,98.472,69.939,95.23,72.799,96.49z"
   id="path62" />
		<path
   fill-rule="evenodd"
   clip-rule="evenodd"
   d="M115.229,99.652c-0.286,1.723-2.403,0.739-3.495,0.5    c-3.728-0.819-8.58-1.609-11.813-2.829c1.126-1.719,4.166-0.173,6.822,0.333C109.873,98.252,113.46,98.337,115.229,99.652z"
   id="path64" />
		<path
   fill-rule="evenodd"
   clip-rule="evenodd"
   d="M77.291,97.322c-0.057,0.886-0.676,1.209-1.165,1.665    c-1.026,0.028-1.858-0.139-2.496-0.5C74.241,97.244,75.765,96.305,77.291,97.322z"
   id="path66" />
		<path
   fill-rule="evenodd"
   clip-rule="evenodd"
   d="M86.443,97.322c-0.24,0.314-0.372,0.738-0.999,0.666    C84.843,97.282,86.042,96.605,86.443,97.322z"
   id="path68" />
		<path
   fill-rule="evenodd"
   clip-rule="evenodd"
   d="M91.768,98.321c-0.217,1.247-2.694,0.541-3.161,0    C88.833,97.168,91.302,97.717,91.768,98.321z"
   id="path70" />
		<path
   fill-rule="evenodd"
   clip-rule="evenodd"
   d="M84.946,98.82c-0.256,1.29-0.25,1.403,0.166,2.495    c-1.467,1.474-3.322,3.445-4.825,4.327c-0.829-2.17,2.449-3.089,3.328-4.659c-0.02-0.813-0.948-0.716-1.499-0.998    C82.145,98.765,83.877,98.455,84.946,98.82z"
   id="path72" />
		<path
   fill-rule="evenodd"
   clip-rule="evenodd"
   d="M96.094,99.485c-0.521,0.615-2.049,0.296-2.662,0    C93.288,98.111,96.093,98.532,96.094,99.485z"
   id="path74" />
		<path
   fill-rule="evenodd"
   clip-rule="evenodd"
   d="M231.871,98.653c0.079,1.903-3.105,4.509-4.492,5.99    c-4.411,4.709-9.17,9.688-13.313,14.144c0.322,0.732,1.676,0.432,1.997,1.164c-0.667,1.863-4.673-0.494-4.825,1.998    c0.273,0.559,1.341,0.322,1.663,0.832c-0.721,0.943-1.456,1.871-2.328,2.662c-4.102-1.059-4.308,2.643-6.822,3.66    c-0.354-1.803,1.72-3.686,2.994-4.992c1.574-1.613,2.9-2.816,4.326-4.658c0.57-0.734,1.541-1.609,2.33-2.496    c3.004-3.375,6.342-6.564,9.65-10.15c1.158-1.254,2.377-2.61,3.661-3.827C228.583,101.208,229.914,99.814,231.871,98.653z"
   id="path76" />
		<path
   fill-rule="evenodd"
   clip-rule="evenodd"
   d="M89.938,99.819c0.479,1.929-2.897,1.958-4.161,0.998    C86.292,99.164,88.441,98.882,89.938,99.819z"
   id="path78" />
		<path
   fill-rule="evenodd"
   clip-rule="evenodd"
   d="M258.993,99.319c0.677,0.351,0.351,2.412,0,2.828    C258.255,101.645,258.851,100.007,258.993,99.319z"
   id="path80" />
		<path
   fill-rule="evenodd"
   clip-rule="evenodd"
   d="M112.566,102.646c-1.081,1.048-3.078,0.157-4.658-0.166    c-3.163-0.646-7.076-1.274-10.15-2.329c-0.047-0.269,0.157-0.287,0.166-0.5c0.135-0.032,0.166-0.167,0.333-0.167    c2.208,0.273,5.047,0.811,7.487,1.331C108.111,101.321,110.659,101.583,112.566,102.646z"
   id="path82" />
		<path
   fill-rule="evenodd"
   clip-rule="evenodd"
   d="M76.126,99.819c-0.086,1.522-1.126,2.09-2.164,2.662    C73.537,101.18,74.868,99.434,76.126,99.819z"
   id="path84" />
		<path
   fill-rule="evenodd"
   clip-rule="evenodd"
   d="M71.8,99.985c-0.646,1.295-1.685,2.197-2.995,2.829    C68.465,101.278,70.365,99.745,71.8,99.985z"
   id="path86" />
		<path
   fill-rule="evenodd"
   clip-rule="evenodd"
   d="M81.618,100.484c0.04,1.094-0.958,1.149-1.498,1.664    c-3.214,3.301-6.738,6.505-9.983,9.984c-0.933,1-2.168,2.411-3.66,2.495c0.016-2.189,1.832-3.356,3.328-4.991    c1.612-1.76,3.287-2.968,5.158-4.492c0.685-0.557,1.05-1.421,1.665-1.997c1.201-1.124,2.816-2.064,3.993-3.161    C81.208,99.896,81.477,100.126,81.618,100.484z"
   id="path88" />
		<path
   fill-rule="evenodd"
   clip-rule="evenodd"
   d="M94.763,100.65c-0.055,2.048-2.303,1.985-3.66,1.165    C91.047,99.953,93.535,99.861,94.763,100.65z"
   id="path90" />
		<path
   fill-rule="evenodd"
   clip-rule="evenodd"
   d="M121.552,100.65c0.146,1.407-1.43,1.565-2.329,0.999    C118.95,100.166,120.729,100.087,121.552,100.65z"
   id="path92" />
		<path
   fill-rule="evenodd"
   clip-rule="evenodd"
   d="M111.402,103.812c-0.156,0.898-0.758,1.35-1.331,1.83    c-4.906-1.029-10.041-1.829-14.809-2.996c0.171-0.709,0.768-1.503,1.496-1.497C100.683,101.183,107.388,103.342,111.402,103.812z"
   id="path94" />
		<path
   fill-rule="evenodd"
   clip-rule="evenodd"
   d="M244.684,101.149c0.241,1.222-1.468,2.564-2.496,3.661    c-2.171,2.314-4.278,4.726-6.49,7.155c-1,1.098-1.996,2.69-3.493,2.828c0.087-1.546,1.717-2.315,2.662-3.327    c3.086-3.309,6.267-6.982,9.484-10.317C244.461,101.149,244.572,101.149,244.684,101.149z"
   id="path96" />
		<path
   fill-rule="evenodd"
   clip-rule="evenodd"
   d="M239.525,102.813c0.194,0.951-0.823,2.035-2.163,1.997    c0.017,0.516-0.203,0.794-0.333,1.165c-3.658,3.591-7.063,7.37-10.649,11.148c-1.117,1.178-2.182,2.75-3.827,3.328    c-0.571-1.654,1.313-2.455,2.163-3.328c3.981-4.079,7.719-8.955,12.479-12.479c0.455-0.71,1.208-1.12,1.664-1.83    C239.081,102.813,239.304,102.813,239.525,102.813z"
   id="path98" />
		<path
   fill-rule="evenodd"
   clip-rule="evenodd"
   d="M221.056,105.31c-0.485,1.573-2.327,3.632-3.994,4.659    C217.592,107.615,218.844,105.982,221.056,105.31z"
   id="path100" />
		<path
   fill-rule="evenodd"
   clip-rule="evenodd"
   d="M245.349,105.809c0.545,1.46-1.123,2.658-1.996,3.66    c-1.938,2.222-3.926,4.425-5.99,6.656c-0.95,1.025-1.868,2.387-3.161,2.662c0.941-4.054,5.873-7.227,8.485-10.317    c0.886-1.046,1.117-2.046,2.33-2.661C245.127,105.809,245.237,105.809,245.349,105.809z"
   id="path102" />
		<path
   fill-rule="evenodd"
   clip-rule="evenodd"
   d="M216.23,110.8c-1.873,2.619-4.589,4.397-6.49,6.989    c0.059,0.662,0.997,0.445,1.331,0.832c-0.443,2.232-4.434-0.029-4.658,2.496c0.355,0.477,1.557,0.107,1.497,0.998    c-1.101,0.396-1.2,1.795-2.163,2.33c-2.814-0.834-3.134,1.129-4.826,1.83c-0.977-3.363,3.304-4.305,4.826-6.49    c0.735-1.055,0.872-1.299,1.996-2.162c2.521-1.939,3.886-5.195,6.656-6.49c0.173-0.383,0.344-0.766,0.666-0.998    C215.673,110.137,215.813,110.607,216.23,110.8z"
   id="path104" />
		<path
   fill-rule="evenodd"
   clip-rule="evenodd"
   d="M200.589,116.457c-0.099,1.389-1.461,1.754-2.662,1.166    C197.789,116.072,199.656,115.508,200.589,116.457z"
   id="path106" />
		<path
   fill-rule="evenodd"
   clip-rule="evenodd"
   d="M197.261,119.453c0.12,0.508-0.17,0.605-0.166,0.998    c-0.503,0.225-1.328,0.225-1.831,0C195.043,119.229,196.406,119.094,197.261,119.453z"
   id="path108" />
		<path
   fill-rule="evenodd"
   clip-rule="evenodd"
   d="M196.263,121.449c0.095,1.682-2.054,1.439-2.995,0.832    C193.28,120.883,195.407,120.578,196.263,121.449z"
   id="path110" />
		<path
   fill-rule="evenodd"
   clip-rule="evenodd"
   d="M228.875,129.104c-0.92-0.078-1.263-0.732-2.162-0.832    c0.745-1.25,1.92-2.074,2.495-3.494C231.825,125.492,230.935,128.463,228.875,129.104z"
   id="path112" />
		<path
   fill-rule="evenodd"
   clip-rule="evenodd"
   d="M227.545,130.602c-0.449,0.549-0.925,1.07-1.664,1.33    c-0.706-0.293-1.205-0.791-1.498-1.498C225.099,128.701,227.148,128.365,227.545,130.602z"
   id="path114" />
		<path
   fill-rule="evenodd"
   clip-rule="evenodd"
   d="M233.701,131.432c-0.566,0.322-1.103,0.674-1.497,1.166    c-1.292,0.127-1.565-0.764-1.997-1.498C230.985,129.299,233.867,127.168,233.701,131.432z"
   id="path116" />
		<path
   fill-rule="evenodd"
   clip-rule="evenodd"
   d="M219.226,135.26c-2.009-1.73,1.728-4.107,1.996-2.162    C221.333,133.9,219.663,134.539,219.226,135.26z"
   id="path118" />
		<path
   fill-rule="evenodd"
   clip-rule="evenodd"
   d="M228.71,135.926c-0.84-0.402-1.134-1.064-1.165-1.664    C227.318,129.992,232.711,135.084,228.71,135.926z"
   id="path120" />
		<path
   fill-rule="evenodd"
   clip-rule="evenodd"
   d="M226.38,109.469c-0.264,1.455-1.545,1.895-1.997,3.161    C224.463,111.75,225.103,109.158,226.38,109.469z"
   id="path122" />
		<path
   fill-rule="evenodd"
   clip-rule="evenodd"
   d="M225.049,113.295c-1.726,2.378-4.089,4.121-5.657,6.656    c1.296,0.646,3.091,0.791,4.325,1.498c-1.491,2.559-6.506-1.709-7.32,1.498c1.159,1.113,3.988,0.559,5.158,1.664    c0.037,0.924-1.158,0.617-1.997,0.664c-0.381,0.447,1.156,0.391,0.999,1.166c-1.686,2.65-4.789-0.674-7.155-0.166    c-2.703,0.578-3.907,5.916-6.988,6.322c-0.835-1.701,1.195-2.908,2.163-3.826c3.282-3.117,6.677-6.875,9.816-10.15    C221.566,117.801,222.487,114.729,225.049,113.295z"
   id="path124" />
		<path
   fill-rule="evenodd"
   clip-rule="evenodd"
   d="M137.026,80.35c8.383-0.994,16.816-0.965,25.292-0.5    c1.512,0.896,2.813,4.505,5.158,4.659c0.612,0.041,3.773-2.029,4.825-2.662c4.658-2.802,9.61-6.535,14.643-8.652    c7.813-3.286,17.693-5.517,27.622-5.159c10.241,0.371,20.252,1.202,29.618,3.495c2.813,2.4,8.661,1.766,10.315,5.324    c1.981-1.086,3.935,0.459,5.99,1.165c1.233,0.423,2.6,0.453,3.827,0.832c2.426,0.751,5.861,1.808,8.819,2.497    c1.752,2.658,2.27,8.955,0.832,12.313c-0.857,0.679-2.417,0.177-3.495,0.832c-3.165,1.925-6.385,3.75-7.82,6.989    c-1.123,2.535-1.096,5.646-1.497,8.819c-0.217,1.712-0.866,3.516-1.165,5.324c-0.905,5.488-2.161,10.619-4.326,14.977    c-0.313,0.629-1.06,1.111-1.497,1.83c-0.443,0.729-0.541,1.5-0.999,2.164c-1.701,2.463-3.465,4.793-5.657,6.986    c-1.124,1.127-2.218,2.389-3.161,3.162c-0.701,0.574-2.767,1.414-2.995,2.33c-0.479,1.918,1.984,4.969,2.496,6.488    c0.997,2.967,1.688,6.426,2.661,9.652c0.97,3.207,1.837,6.445,2.497,9.816c0.633,3.238,1.767,6.008,2.163,10.316    c0.363,3.953,0.527,5.775-0.998,8.32c-0.852,1.418-1.439,2.793-3.994,2.496c-1.704-0.199-3.664-2.938-3.993-4.494    c-0.192-0.91,0.071-1.891,0-2.828c-0.126-1.656-0.666-3.314-0.832-4.826c-0.15-1.367,0.057-2.852-0.167-4.326    c-0.701-4.623-1.971-9.322-3.16-13.643c-1.218-4.42-2.916-8.592-4.161-12.646c-1.577,0.016-2.491,1.074-3.494,1.496    c-8.146,3.445-17.784,3.268-26.29,1.5c-15.021-3.125-25.364-13.264-31.781-24.129c-1.698-4.568-4.239-8.295-5.99-12.813    c-2.433-1.385-5.632-1.434-8.818-2.163c-2.902-0.663-5.973-1.948-8.819-1.997c-2.811-0.047-7.49,1.218-10.815,1.997    c-1.012,0.237-2.684,0.397-3.328,0.833c-1.102,0.746-2.729,5.754-3.328,7.32c-2.915,7.635-7.001,13.949-12.812,18.969    c-7.678,6.635-16.915,12.1-29.784,12.48c-9.194,0.271-15.785-2.096-22.63-4.826c-1.348,3.551-2.262,7.549-3.162,11.814    c-0.296,1.406-0.375,2.791-0.665,4.16c-0.396,1.859-1.118,3.641-1.498,5.49c-0.776,3.771-1.315,7.783-1.997,11.98    c-0.69,4.25-1.411,12.043-7.654,10.15c-1.764-0.535-3.211-3.221-3.328-5.658c-0.055-1.141,0.386-2.043,0.499-2.994    c0.07-0.584-0.069-1.664,0-2.496c0.399-4.73,2.445-9.096,3.661-14.643c0.483-2.201,0.68-4.027,1.331-5.99    c1.224-3.686,2.085-7.08,3.162-11.148c0.489-1.848,1.652-4.58,1.498-5.656c-0.119-0.83-2.117-2.443-3.328-3.496    c-3.499-3.039-6.476-7.496-8.652-11.48c-1.462-2.678-3.251-5.844-4.159-9.318c-0.478-1.826-0.629-3.854-0.999-5.823    c-0.337-1.796-1.054-3.563-1.331-5.325c-0.108-0.681,0.13-1.353,0-1.997c-0.245-1.202-1.069-2.515-1.498-3.826    c-0.45-1.375-1.035-2.604-1.498-3.827c-2.484-3.396-7.454-4.305-11.481-6.157c-0.516-2.669-0.447-4.977-0.167-8.486    c0.127-1.587,0.104-3.506,0.833-4.159c1.316-1.182,7.815-0.74,10.815-0.999c3.953-0.342,5.761-1.948,8.819-3.161    c4.637-1.84,8.169-4.05,13.644-5.325c6.763-1.574,14.077-3.127,21.963-3.494c9.284-0.432,17.428,0.55,24.959,2.829    c8.331,2.521,13.771,5.43,19.802,9.817c1.927,1.403,4.41,4.573,6.156,4.659c1.485,0.074,2.313-1.188,3.162-2.163    C135.731,82.348,136.529,81.434,137.026,80.35z M131.702,89.502c-1.006-0.097-1.644-2.017-2.496-2.995    c-0.658-0.755-1.871-1.863-2.829-2.662c-4.063-3.395-7.519-5.359-12.146-7.321c-1.463-0.621-2.784-1.599-4.159-2.164    c-11.301-4.633-26.165-5.528-40.102-3.328c-4.184,0.661-8.587,1.475-11.814,2.496c-2.037,0.645-3.49,1.696-4.992,2.33    c-2.37,1-4.931,1.645-7.321,2.829c-5.604,2.776-11,3.669-18.137,3.828c-1.252,2.255-1.832,6.482-0.665,9.317    c2.521,0.393,5.238,0.506,7.487,1.831c2.31,1.36,4.29,5.684,5.325,8.486c0.494,1.338,0.903,2.896,1.165,4.327    c0.649,3.544,0.679,7.601,1.831,11.315c4.119,13.285,12.679,25.877,25.625,31.115c6.326,2.561,16.122,5.117,26.124,3.328    c4.139-0.74,7.201-2.064,11.48-3.826c-0.085-0.693-1.187-0.367-1.165-1.166c1.166-2.273,4.495-2.383,5.824-4.492    c-9.036,5.813-19.866,8.189-30.782,6.488c-17.867-2.779-29.255-15.332-33.945-30.947c-1.252-4.171-1.375-9.283-1.83-14.477    c-0.239-2.732-0.812-5.455-0.666-7.987c0.478-8.26,3.698-15.081,9.318-17.97c4.072-2.094,9.117-3.696,14.476-4.659    c0.743,0.2,0.392,1.494,1.331,1.498c15.547-3.468,33.021-0.313,44.428,5.657c2.835,1.484,6.056,3.027,7.819,4.826    c0.345,0.35,0.47,0.937,0.832,1.331c0.351,0.381,0.842,0.65,1.165,0.999c4.384,4.724,5.89,10.59,6.323,17.97    c2.82-0.95,4.467-3.076,8.485-2.829c-0.757-1.631-1.952-2.677-1.996-4.658c-0.059-2.625,1.933-4.961,2.828-6.822    c-1.336-1.437-1.353-4.194-2.661-5.658C134.494,86.415,133.627,89.688,131.702,89.502z M253.003,130.934    c2.692-4.23,4.498-9.602,5.324-15.641c0.455-3.325,0.16-6.908,0.998-9.983c0.964-3.531,2.188-7.211,3.994-9.651    c1.471-1.986,3.597-2.439,5.158-4.493c1.586-0.41,3.477-0.517,4.16-1.83c0.644-1.447,0.364-4.483,0-5.99    c-0.921-0.244-1.973-0.358-3.162-0.333c-2.278-0.759-4.279-1.307-6.322-1.831c-1.848-0.474-3.438-1.029-5.325-1.665    c-1.398-0.471-2.896-1.251-4.326-1.83c-1.537-0.622-3.223-1.179-4.492-1.831c-0.611-0.314-1.037-1.04-1.664-1.331    c-1.975-0.918-5.126-1.359-8.153-1.996c-12.082-2.542-30.217-3.983-42.265-0.666c-2.899,0.799-6.08,1.565-8.485,2.662    c-1.492,0.681-2.967,1.868-4.659,2.663c-4.733,2.222-10.33,5.246-13.645,8.485c-1.015,0.992-1.44,2.482-2.829,2.996    c-0.915-0.083-0.472-1.524-1.497-1.498c-0.833,1.054-1.375,3.282-2.329,3.66c0.193-1.944,1.883-3.178,1.498-5.158    c-1.289,0.176-1.575,1.708-1.997,2.663c-0.506,1.142-1.086,2.297-1.331,3.494c2.322,2.36,4.103,6.685,1.997,9.818    c-0.572,0.85-1.979,1.174-1.997,2.496c0.871,0.276,1.685-0.594,2.828-0.832c2.774-0.577,4.478,1.154,6.323,1.831    c0.574-3.528,0.281-6.511,1.164-9.318c0.817-2.596,3.251-4.689,3.162-7.82c-1.581,0.184-2.741,1.865-3.494,3.327    c-1.14,2.211-1.264,5.305-2.829,6.989c0.887-7.465,5.328-12.176,9.983-16.14c3.954-3.367,9.492-5.451,14.144-7.655    c1.159,0.276,1.687-0.795,2.496-0.333c0.067,1.104-1.631,1.2-1.331,1.997c6.985-2.417,16.103-3.537,25.292-2.829    c5.427,0.418,10.831,1.708,16.306,2.663c4.552,0.792,12.075,2.426,14.644,4.825c2.608,2.437,3.902,6.434,5.491,9.651    c0.751,5.147,1.432,10.433,0.998,15.642c-0.261,3.126-1.078,5.644-1.498,8.319c-1.085,6.909-3.363,13.043-6.655,17.805    c-5.359,7.752-13.892,14.457-24.127,17.139c-5.773,1.512-13.016,1.637-18.304,0.498c-13.951-3.002-22.816-10.68-29.617-21.631    c-0.503-2.109-2.066-3.984-3.162-6.156c-0.329-0.652-0.324-1.469-0.666-2.164c-0.244-0.498-0.765-0.781-0.998-1.33    c-0.517-1.213-0.901-1.887-1.331-2.828c-0.807-1.77-1.123-3.78-1.997-6.158c-0.408-1.111-1.745-4.975-2.995-5.324    c-1.094-0.306-2.142,0.856-3.161,0.5c1.345,2.369,2.613,4.602,3.827,6.989c0.805,1.58,1.866,2.919,2.662,4.492    c0.824,1.629,1.121,3.395,1.83,5.326c0.744,2.023,2.05,4.439,3.162,6.654c1.067,2.125,2.354,4.33,3.66,6.156    c7.851,10.973,21.416,19.969,39.769,19.135c9.022-0.408,15.152-3.576,21.631-7.154c0.27-0.619,0.69-1.084,0.998-1.664    c-0.386-2.697,1.481-2.965,3.162-4.326c2.182-1.768,5.949-6.633,7.321-8.986c0.895-1.533,0.618-2.748,2.329-3.992    C254.033,128.076,253.035,130.107,253.003,130.934z M121.053,87.505c-9.923-7.504-24.677-13.333-42.596-12.313    c-8.205,0.466-17.803,2.386-23.462,5.657c-2.192,1.267-4.005,3.628-5.158,5.658c7.012,1.03,13.903,2.181,20.133,3.993    c-1.142,2.125-4.294,0.423-6.489,0c-2.551-0.491-5.178-1.083-7.488-1.331c-0.206,0.521-0.442,1.109-0.166,1.663    c3.039,1.565,8.09,1.117,11.148,2.663c-2.1,2.185-7.005-1.697-9.318-0.333c0.68,1.717,8.46,0.762,8.486,2.829    c0.023,1.914-3.959,0.334-4.826,0.167c-4.971-0.967-10.298-1.791-14.81-2.829c-1.212,6.586-0.911,13.651,0.999,19.301    c1.184,3.499,1.774,7.284,3.163,10.649c2.432,5.895,6.34,10.313,10.316,13.811c3.307-6.299,6.044-13,12.813-16.139    c2.59-1.201,5.956-1.652,9.317-2.33c8.498-1.713,16.591-3.309,25.125-4.993c2.842-0.561,5.658-0.913,9.152-1.663    c1.47-0.315,2.714-0.766,4.325-0.998c0.978-0.142,2.938-0.031,3.495-0.5c2.522-2.126-5.104-2.861-5.823-3.328    c1.119-3.429,5.295,1.224,7.32-0.665c-1.247-1.083-4.527-0.131-5.324-1.664c1.053-1.699,3.986,0.565,5.324,0.167    c0.332-0.445,0.086-1.468,0.333-1.997c-0.943-0.216-3.064,0.181-3.494-0.999c0.453-1.426,2.125,0.127,2.995-0.333    C126.066,96.189,123.904,91.129,121.053,87.505z M249.675,85.508c0.166-0.961-2.177-2.458-3.162-3.161    c-1.452-1.038-2.786-2.187-3.826-2.663c-3.882-1.775-9.942-2.498-15.808-3.328c-5.484-0.776-12.226-1.572-18.137-1.165    c-8.622,0.594-15.786,3.272-21.964,5.491c-1.161,1.225-2.729,2.073-3.993,3.328c-2.354,2.336-4.218,4.433-5.824,7.321    c-0.638,3.522-2.659,5.661-2.995,9.484c6.007-0.441,11.851-2.075,17.805-3.328c14.831-3.12,30.225-5.782,44.759-8.819    c2.98-0.622,5.974-1.033,8.819-1.997C246.729,86.811,249.466,86.72,249.675,85.508z M139.023,82.68    c0.548,2.669,1.407,5.027,2.662,6.989c3.229-1.428,8.789-1.931,13.146-1.165c0.692-1.858,1.133-3.969,1.497-6.156    C150.337,82.021,143.923,81.221,139.023,82.68z M157.659,82.347c-0.428,2.234-1.198,4.126-1.497,6.489    c0.389,0.055,0.688,0.2,0.998,0.333c1.042-1.731,1.571-3.976,1.664-6.656C158.609,82.285,158.101,82.349,157.659,82.347z     M138.025,83.512c-0.213-0.01-0.23-0.214-0.5-0.167c-0.103,0.451-0.695,0.413-0.665,0.998c1.125,2.037,1.253,5.07,3.161,6.323    C141.195,88.625,138.12,85.965,138.025,83.512z M246.846,87.838c-0.263,0.559,0.001,1.238,0.333,1.664    c1.35-0.315,2.99-0.338,3.994-0.999c0.109-0.608-0.36-0.638-0.333-1.165C249.558,86.972,248.023,87.568,246.846,87.838z     M52.498,90.333c0.764-0.572,0.475-2.127-0.832-1.996C51.324,89.028,51.678,90.272,52.498,90.333z M242.853,88.67    c-21.364,4.361-44.247,8.87-65.892,12.813c-1.131,0.206-3.232,0.04-3.661,1.664c1.245,0.889,3.014,0.219,4.327,0    c4.516-0.749,9.049-1.693,13.644-2.662c12.322-2.598,24.134-4.663,36.274-6.988c4.413-0.846,9.382-1.726,13.644-2.663    c1.108-0.243,3.606-0.304,2.829-2.329C243.384,88.438,243.207,88.598,242.853,88.67z M247.346,91    c0.734,1.345,3.489,0.139,4.991,0.167c0.122-0.787-0.237-1.094-0.499-1.498C250.153,89.925,248.193,89.907,247.346,91z     M151.336,105.143c2.628-0.016,4.964-1.556,7.655-1.831c3.322-3.056,2.471-9.672-1.332-11.814    c-1.259-0.709-2.657-0.299-4.159-0.999c-4.675,0.184-9.711,1.058-12.479,3.661c-2.042,2.478-0.832,7.236,0.998,9.151    C145.341,103.239,148.253,105.161,151.336,105.143z M238.859,92.165c-18.751,3.601-37.229,7.537-55.576,10.981    c-1.177,0.222-2.748,0.213-3.66,1.165c1.099,0.835,2.718,0.207,3.827,0c18.813-3.497,38.124-7.771,56.906-11.148    c1.152-0.207,2.863-0.195,3.661-1.332C242.659,90.87,240.738,91.803,238.859,92.165z M173.966,108.637    c0.236,0.928,0.611,1.719,0.999,2.496c5.95,1.274,12.306,2.246,17.97,3.66c1.062,0.266,2.2-0.066,2.995,0.832    c-0.091,0.686-0.548,1.006-0.999,1.332c-5.35-0.75-9.816-2.385-15.141-3.162c-0.198,0.692,0.153,1.839,0.499,2.496    c4.07,1.176,9.35,1.221,12.979,2.828c-0.787,1.24-2.56,0.447-3.827,0.166c-1.368-0.301-2.751-0.986-4.16-0.83    c0.948,2.104,5.268,0.834,6.822,2.328c-1.279,2.186-4.462,0.605-6.655,0.168c-2.57-0.516-5.151-1.088-7.322-1.498    c0.073,1.582,0.552,3.063,0.833,4.826c0.182,1.143-0.157,2.469,0.166,3.66c0.322,1.188,1.995,2.645,2.995,3.826    c1.175,1.389,2.091,2.904,2.995,3.994c2.445,2.945,6.708,5.865,10.815,7.986c9.993,5.16,25.293,6.639,35.608,0.166    c-0.389-2.105-1.57-3.42-1.997-5.49c0.615-0.549,0.747-1.584,1.831-1.664c1.362,1.521,1.491,4.277,2.662,5.99    c1.381-0.227,2.213-1.004,2.995-1.83c-0.435-2.834-3.997-5.348-2.496-7.986c2.339,1.266,2.063,5.146,4.16,6.654    c6.34-4.473,10.925-12.268,13.312-20.633c0.355-1.244,0.963-2.439,1.33-3.661c0.878-2.915,1.079-6.648,1.332-9.983    c0.313-4.135-0.596-8.526-1.332-12.313C226.661,97.992,200.593,103.594,173.966,108.637z M136.195,103.645    c-0.003,0.221-0.293,0.152-0.333,0.333c-1.736,2.104-2.931,4.894-4.493,7.488c-4.574,7.59-6.883,16.614-12.146,23.461    c0.594,0.127,1.142-0.516,1.331,0.166c0.544,1.873-1.624,2.332-1.83,3.994c5.317-4.506,8.867-11.395,11.647-18.637    c0.555-1.443,0.764-3.063,1.331-4.492c1.71-4.309,4.788-7.693,6.156-11.648C137.517,103.876,136.803,103.815,136.195,103.645z     M155.496,105.31c-1.579,0.269-3.157,0.673-4.658,0.999c-3.448,0.746-7.46,0.8-10.317,2.329c-0.842,0.115-0.985-0.567-1.663-0.167    c-0.263,0.404-0.622,0.711-0.5,1.498c5.885-0.442,12.136-2.349,17.971-3.494c1.237-0.243,2.691-0.036,3.66-0.999    C158.863,104.164,156.914,105.068,155.496,105.31z M151.669,110.8c3.558-0.743,7.139-1.31,10.316-2.496    c-0.148-0.517-0.171-1.159-0.832-1.165c-0.353,0.258-0.741,0.479-1.165,0.666c-4.699,1.071-10.049,2.087-14.809,3.162    c-1.433,0.322-3.634,0.092-4.325,1.663 M173.134,112.298c0.505,1.509,0.736,3.209,0.998,4.159    c0.193,0.699,0.784,1.291,0.999,1.998c0.783,2.578,0.963,5.484,2.828,7.154c-0.7-6.232-2.152-11.713-4.825-15.974    C172.819,110.214,172.98,111.84,173.134,112.298z M158.491,111.632c1.651,0.456,3.299,0.917,5.325,0.998    c0.242-0.589-0.402-1.544-0.666-2.163C161.573,110.832,159.545,110.745,158.491,111.632z M110.736,114.294    c-7.609,1.586-16.52,3.26-23.961,4.825c-4.051,0.854-8.812,1.09-11.814,2.664c-0.722,0.377-1.613,1.229-2.495,1.83    c-1.012,0.688-2.136,1.162-2.663,1.662c-2.294,2.184-3.965,5.486-5.491,8.654c-0.709,1.473-3.338,5.016-0.167,5.49    c1.901-5.531,4.777-10.088,8.32-13.977c1.102-0.451,2.052-1.055,2.995-1.664c10.346-2.459,21.869-4.35,32.447-6.822    c3.609-0.844,7.222-1.936,10.648-2.497c2.441-0.398,5.52,0.314,5.658-2.661C119.741,112.349,115.454,113.311,110.736,114.294z     M122.052,120.783c-0.138,1.016-0.405,2.842,0.166,3.496c1.352-2.762,3.186-6.787,2.828-10.151    C123.646,115.529,122.42,118.057,122.052,120.783z M107.242,118.289c-8.168,1.729-16.719,3.475-24.792,5.156    c-1.349,0.281-3.325,0.193-4.16,1.498c3.912,0.365,7.586-1.301,11.481-2.328c3.985-1.053,8.275-1.902,12.479-2.664    c4.286-0.775,8.546-1.906,12.646-2.662c1.186-0.219,2.446,0.178,2.996-0.998C114.226,116.873,110.882,117.518,107.242,118.289z     M77.291,127.273c-4.81,3.176-7.303,8.67-9.317,14.643c4.842,2.877,11.372,5.174,18.802,5.158    c13.792-0.031,24.196-6.863,30.617-15.143c1.075-1.387,2.776-3.012,2.994-4.326c0.142-0.846-0.184-1.697-0.166-2.496    c0.052-2.32,0.853-4.41,0.832-6.488C106.023,121.063,92.149,124.66,77.291,127.273z M69.304,134.928    c0.885-1.557,1.933-2.949,2.497-4.826C70.465,131.01,68.73,133.211,69.304,134.928z M57.989,153.23    c-1.387,3.266-3.244,6.652-3.66,10.65c-1.7,4.863-4.021,13.92-5.491,19.967c-1.013,4.166,0.318,9.385,4.992,7.654    c-0.358-1.695-1.902-2.203-2.496-3.662c3.842-8.748,5.545-19.635,7.986-29.783c-0.036-0.686-1.08-0.363-0.998-1.166    c0.181-1.984,1.651-4.26,0.832-6.156C58.129,151.24,58.359,152.361,57.989,153.23z M237.86,154.396    c0.171,1.203,1.063,2.4,1.498,3.66c1.834,5.299,4.493,13.078,5.491,18.303c0.197,1.033-0.009,1.658,0.332,2.33    c0.337,0.66,2.077,1.906,2.33,1.83c1.72-0.518,0.155-3.746-0.166-5.324c-0.216-1.057-0.017-1.574-0.167-2.496    c-0.95-5.855-3.715-11.842-4.991-17.305c-2.055,0.168-2.383-1.391-4.159-1.498C238.019,154.109,237.814,154.127,237.86,154.396z     M238.693,160.053c-0.324-1.451-0.465-3.084-1.498-3.828C237.435,157.762,237.863,159.107,238.693,160.053z M57.989,167.707    c-0.611,2.164-1.084,4.52-1.497,6.656c-0.913,4.717-2.216,9.445-1.997,13.811c1.8-0.875,2.216-5.104,2.496-7.488    c0.432-3.686,0.563-7.295,1.331-10.814c0.758-3.473,1.764-6.719,2.164-9.984c-0.038-0.131-0.14-0.193-0.333-0.166    C59.224,161.971,58.829,164.736,57.989,167.707z M242.188,173.531c0.938,4.139,2.201,8.625,2.163,12.646    c-0.012,1.188-0.653,2.223-0.166,3.326c0.766,1.736,4.168,2.369,4.825-0.166c-1.289-0.949-3.215-1.426-3.661-3.16    c-0.261-1.016-0.003-2.186-0.167-3.164c-1.31-7.844-4.262-15.996-6.488-22.629C239.534,165.061,241.086,168.674,242.188,173.531z     M248.011,186.344c0.517-0.018,0.475,0.523,1.165,0.332c-0.085-1.412,0.039-3.035-0.832-3.662    C248.149,184.041,248.041,185.154,248.011,186.344z"
   id="path126" />
	</g>
	<path
   opacity="0.43"
   fill-rule="evenodd"
   clip-rule="evenodd"
   fill="#FFFFFF"
   d="M241.938,79.435c0,0-25.791,31.449-31.78,35.11   c-5.99,3.661-15.808,15.475-22.963,14.643c-7.154-0.832,37.938,10.982,37.938,10.982l28.62-44.595L241.938,79.435z"
   id="path128" />
	<path
   opacity="0.69"
   fill-rule="evenodd"
   clip-rule="evenodd"
   fill="#FFFFFF"
   d="M203.751,129.104c0,0,22.213-17.388,30.034-24.709   c7.819-7.322,10.981-2.497,10.981-2.497s-21.965,32.114-25.958,32.282C214.815,134.346,203.751,129.104,203.751,129.104z"
   id="path130" />
	<path
   opacity="0.43"
   fill-rule="evenodd"
   clip-rule="evenodd"
   fill="#FFFFFF"
   d="M93.312,76.738c0,0-25.042,22.549-31.032,26.209   s-4.746,15.061-11.9,14.229c-7.155-0.834,26.459,1.498,26.459,1.498l29.036-34.696L93.312,76.738z"
   id="path132" />
	<path
   opacity="0.69"
   fill-rule="evenodd"
   clip-rule="evenodd"
   fill="#FFFFFF"
   d="M55.873,117.506c0,0,22.213-17.387,30.034-24.709   c7.82-7.321,10.981-2.496,10.981-2.496s-21.963,32.113-25.957,32.281C66.938,122.748,55.873,117.506,55.873,117.506z"
   id="path134" />
	<path
   opacity="0.3"
   fill-rule="evenodd"
   clip-rule="evenodd"
   fill="#0A0710"
   stroke="#66C07C"
   d="M79.833,70.247   c0,0,24.695-0.097,41.053,14.929c16.359,15.026,14.362,4.542,14.362,4.542l25.461-5.491l-23.683-3.876l-4.976,7.172   C132.051,87.522,117.275,71.246,79.833,70.247z"
   id="path136" />
	<path
   opacity="0.29"
   fill-rule="evenodd"
   clip-rule="evenodd"
   fill="#0A0710"
   stroke="#66C07C"
   d="M58.322,156.891   c0,0-8.362,27.563-10.649,31.115c-2.287,3.555,6.699-27.896,6.699-27.896L58.322,156.891z"
   id="path138" />
	<path
   opacity="0.31"
   fill-rule="evenodd"
   clip-rule="evenodd"
   fill="#0A0710"
   stroke="#66C07C"
   d="M49.94,79.536   c0,0-8.465,1.764-14.747,7.471c-6.281,5.706-8.152,4.825-8.152,4.825l-1.498-10.648c0,0,10.482,2.15,13.915-1.397   c3.432-3.547,25.898-8.54,25.898-8.54S53.994,73.847,49.94,79.536z"
   id="path140" />
	<path
   opacity="0.33"
   fill-rule="evenodd"
   clip-rule="evenodd"
   fill="#0A0710"
   stroke="#66C07C"
   d="M174.688,132.152   c0,0,14.977,22.465,33.448,21.965c18.472-0.498,31.722-9.373,31.722-9.373l-6.761-0.111c0,0-18.971,7.988-29.954,4.492   C192.16,145.631,174.688,132.152,174.688,132.152z"
   id="path142" />
	<path
   opacity="0.24"
   fill-rule="evenodd"
   clip-rule="evenodd"
   fill="#F2E4E4"
   stroke="#66C07C"
   d="M235.094,73.742   c0,0,28.392,7.773,30.888,12.598c2.496,4.826,5.557,5.874,5.557,5.874l1.1-8.868l-13.552-4.559c0,0-29.983-13.032-39.968-10.037   C209.134,71.745,235.094,73.742,235.094,73.742z"
   id="path144" />
	<path
   opacity="0.26"
   fill-rule="evenodd"
   clip-rule="evenodd"
   fill="#F2E4E4"
   stroke="#66C07C"
   d="M175.131,88.005   c0,0-7.875,19.583-6.656,21.63c1.22,2.048,4.215,14.529,4.215,14.529l-6.988-15.476c0,0,1.885-14.429,0.998-17.972   C165.813,87.172,173.577,86.292,175.131,88.005z"
   id="path146" />
	<path
   opacity="0.26"
   fill-rule="evenodd"
   clip-rule="evenodd"
   fill="#F2E4E4"
   stroke="#66C07C"
   d="M37.398,96.208   c0,0,5.091,21.207,8.444,33.894c0.542,2.051,3.538,0.053,8.03,9.539c4.494,9.484-7.988-20.469-9.485-24.961   c-1.498-4.493-1.749-9.252-0.875-18.854C44.388,86.223,37.586,93.911,37.398,96.208z"
   id="path148" />
</g></svg>